<svg>
<symbol id="arrow_1" viewBox="0 0 12 10" fill="none">
<path stroke="currentColor" stroke-linecap="round" stroke-linejoin="round" d="M7.1 9.5 11.5 5 7.1 0.5M11.5 5h-11"/>
</symbol>
<symbol id="burgerBtn" viewBox="0 0 18 13">
  <path
    d="M0.9167 0.9167h15.5834"
    stroke="currentColor"
    stroke-width="1.8"
    stroke-linecap="round"
  />
  <path
    d="M0.9167 6.4167h15.5834"
    stroke="currentColor"
    stroke-width="1.8"
    stroke-linecap="round"
  />
  <path
    d="M0.9167 11.9167h15.5834"
    stroke="currentColor"
    stroke-width="1.8"
    stroke-linecap="round"
  />
</symbol>
<symbol id="email_icon" viewBox="0 0 12 12" fill="none">
<path fill="#fff" d="M2.5 2.5H9c0.3978 0 0.7794 0.158 1.0607 0.4393C10.342 3.2206 10.5 3.6022 10.5 4v4.5c0 0.3978-0.158 0.7794-0.4393 1.0607C9.7794 9.842 9.3978 10 9 10H2.5c-0.3978 0-0.7794-0.158-1.0607-0.4393S1 8.8978 1 8.5V4c0-0.3978 0.158-0.7794 0.4393-1.0607S2.1022 2.5 2.5 2.5zM2.5 3C2.25 3 2.03 3.085 1.86 3.235L5.75 5.75 9.64 3.235C9.47 3.085 9.25 3 9 3zM5.75 6.355 1.565 3.64C1.525 3.75 1.5 3.875 1.5 4v4.5c0 0.2652 0.1054 0.5196 0.2929 0.7071C1.9804 9.3946 2.2348 9.5 2.5 9.5H9c0.2652 0 0.5196-0.1054 0.7071-0.2929C9.8946 9.0196 10 8.7652 10 8.5V4c0-0.125-0.025-0.25-0.065-0.36z"/>
</symbol>
<symbol id="facebook_icon" viewBox="0 0 15 15" fill="none">
<path stroke="#fff" d="M6.8252 8.1816l-1.8242 0c-0.0552 0-0.1084-0.0215-0.1475-0.0605C4.8145 8.082 4.793 8.0289 4.793 7.9736s0.0214-0.1084 0.0605-0.1474C4.8926 7.7871 4.9458 7.7656 5.001 7.7656l1.8242 0V4.9707c0-0.337 0.1337-0.6611 0.3721-0.8994s0.5623-0.3721 0.8994-0.3721l1.2041 0c0.0551 1e-4 0.1075 0.0226 0.1465 0.0615 0.039 0.0391 0.0615 0.0922 0.0615 0.1475-1e-4 0.0551-0.0226 0.1075-0.0615 0.1465-0.039 0.0389-0.0914 0.0614-0.1465 0.0615l-0.8506 0c-0.3204 1e-4-0.6279 0.127-0.8545 0.3535-0.2266 0.2266-0.3535 0.5341-0.3535 0.8545l0 2.4414 1.832 0c0.055 1e-4 0.1076 0.0218 0.1465 0.0606 0.0391 0.039 0.0615 0.0922 0.0615 0.1474S9.2598 8.082 9.2207 8.1211C9.1818 8.1599 9.1292 8.1815 9.0742 8.1816l-1.832 0 0 5.3848c-0.0693 22e-4-0.1386 59e-4-0.208 59e-4-0.0698-1e-4-0.1395-36e-4-0.209-59e-4z"/>
</symbol>
<symbol id="instagram_icon" viewBox="0 0 14 14" fill="#fff">
<mask id="instagram_icon_path-1-inside-1_16_634">
<path d="M11.5305 13.4055H1.875c-0.4973 0-0.9742-0.1975-1.3258-0.5492C0.1975 12.5047 0 12.0278 0 11.5305V1.875c0-0.4973 0.1975-0.9742 0.5492-1.3258S1.3777 0 1.875 0h9.6555c0.4973 0 0.9742 0.1975 1.3258 0.5492 0.3517 0.3516 0.5492 0.8285 0.5492 1.3258v9.6555c0 0.4973-0.1975 0.9742-0.5492 1.3258-0.3516 0.3517-0.8285 0.5492-1.3258 0.5492zM1.875 0.75c-0.2984 0-0.5845 0.1185-0.7955 0.3295S0.75 1.5766 0.75 1.875v9.6555c0 0.2984 0.1185 0.5845 0.3295 0.7955s0.4971 0.3295 0.7955 0.3295h9.6555c0.2984 0 0.5845-0.1185 0.7955-0.3295s0.3295-0.4971 0.3295-0.7955V1.875c0-0.2984-0.1185-0.5845-0.3295-0.7955S11.8289 0.75 11.5305 0.75z"/>
</mask>
<path mask="url(#instagram_icon_path-1-inside-1_16_634)" d="M0 1.875h-1zM1.875 0v-1zM11.5305 0v-1zM11.5305 13.4055v-1H1.875v1 1h9.6555zM1.875 13.4055v-1c-0.2321 0-0.4546-0.0922-0.6187-0.2563l-0.7071 0.7071-0.7071 0.7071c0.5391 0.5392 1.2704 0.8421 2.0329 0.8421zM0.5492 12.8563l0.7071-0.7071C1.0922 11.9851 1 11.7626 1 11.5305H0-1c0 0.7625 0.3029 1.4938 0.8421 2.0329zM0 11.5305h1V1.875H0-1v9.6555zM0 1.875h1c0-0.2321 0.0922-0.4546 0.2563-0.6187L0.5492 0.5492-0.1579-0.1579C-0.6971 0.3812-1 1.1125-1 1.875zM0.5492 0.5492 1.2563 1.2563C1.4204 1.0922 1.6429 1 1.875 1V0-1C1.1125-1 0.3812-0.6971-0.1579-0.1579zM1.875 0v1h9.6555V0-1H1.875zM11.5305 0v1c0.2321 0 0.4546 0.0922 0.6187 0.2563l0.7071-0.7071 0.7071-0.7071C13.0243-0.6971 12.293-1 11.5305-1zM12.8563 0.5492 12.1492 1.2563c0.1641 0.1641 0.2563 0.3866 0.2563 0.6187h1 1c0-0.7625-0.3029-1.4938-0.8421-2.0329zM13.4055 1.875h-1v9.6555h1 1V1.875zM13.4055 11.5305h-1c0 0.2321-0.0922 0.4546-0.2563 0.6187l0.7071 0.7071 0.7071 0.7071c0.5392-0.5391 0.8421-1.2704 0.8421-2.0329zM12.8563 12.8563l-0.7071-0.7071c-0.1641 0.1641-0.3866 0.2563-0.6187 0.2563v1 1c0.7625 0 1.4938-0.3029 2.0329-0.8421zM1.875 0.75v-1c-0.5636 0-1.1041 0.2239-1.5026 0.6224l0.7071 0.7071 0.7071 0.7071C1.8101 1.7632 1.8419 1.75 1.875 1.75zM1.0795 1.0795 0.3724 0.3724C-0.0261 0.7709-0.25 1.3114-0.25 1.875h1 1c0-0.0332 0.0132-0.065 0.0366-0.0884zM0.75 1.875h-1v9.6555h1 1V1.875zM0.75 11.5305h-1c0 0.5636 0.2239 1.1041 0.6224 1.5026l0.7071-0.7071 0.7071-0.7071C1.7632 11.5954 1.75 11.5637 1.75 11.5305zM1.0795 12.326 0.3724 13.0331c0.3985 0.3985 0.939 0.6224 1.5026 0.6224v-1-1c-0.0332 0-0.0649-0.0132-0.0884-0.0366zM1.875 12.6555v1h9.6555v-1-1H1.875zM11.5305 12.6555v1c0.5636 0 1.1041-0.2239 1.5026-0.6224L12.326 12.326l-0.7071-0.7071c-0.0235 0.0234-0.0553 0.0366-0.0884 0.0366zM12.326 12.326l0.7071 0.7071c0.3985-0.3985 0.6224-0.939 0.6224-1.5026h-1-1c0 0.0331-0.0132 0.0649-0.0366 0.0884zM12.6555 11.5305h1V1.875h-1-1v9.6555zM12.6555 1.875h1c0-0.5636-0.2239-1.1041-0.6224-1.5026L12.326 1.0795 11.6189 1.7866c0.0234 0.0235 0.0366 0.0552 0.0366 0.0884zM12.326 1.0795l0.7071-0.7071C12.6346-0.0261 12.0941-0.25 11.5305-0.25v1 1c0.0332 0 0.0649 0.0132 0.0884 0.0366zM11.5305 0.75v-1H1.875v1 1h9.6555z"/>
<mask id="instagram_icon_path-3-inside-2_16_634">
<path d="M6.7028 10.1482c-0.6815-7e-4-1.3475-0.2035-1.9137-0.5826C4.2228 9.1864 3.7817 8.6479 3.5214 8.018S3.1935 6.6954 3.327 6.0271s0.462-1.282 0.9442-1.7636 1.0964-0.8093 1.7648-0.9419c0.6685-0.1326 1.3612-0.064 1.9907 0.197 0.6295 0.2611 1.1675 0.7029 1.5459 1.2697s0.5803 1.233 0.5802 1.9144c-12e-4 0.9143-0.3653 1.7906-1.0121 2.4367s-1.5237 1.0088-2.438 1.0088zM6.7028 4.0027c-0.533 8e-4-1.0538 0.1594-1.4966 0.456S4.4184 5.1764 4.2148 5.6689 3.9581 6.7032 4.0623 7.2259C4.1664 7.7486 4.4231 8.2287 4.8 8.6055s0.8569 0.6336 1.3796 0.7377c0.5226 0.1042 1.0645 0.0511 1.557-0.1525 0.4925-0.2036 0.9136-0.5486 1.2102-0.9914s0.4552-0.9636 0.456-1.4966c0-0.7161-0.2845-1.4028-0.7909-1.9092S7.4188 4.0027 6.7028 4.0027z"/>
</mask>
<path mask="url(#instagram_icon_path-3-inside-2_16_634)" d="M6.7028 10.1482l-11e-4 1h1e-3zM10.1528 6.7027l1 13e-4V6.703zM6.7028 4.0027l-1e-4-1-14e-4 0zM9.4028 6.7027l1 14e-4v-14e-4zM6.7028 10.1482l1e-3-1c-0.4837-5e-4-0.9564-0.1444-1.3584-0.4136l-0.5563 0.831-0.5564 0.8309c0.7306 0.4892 1.5897 0.7508 2.469 0.7517zM4.7891 9.5656l0.5563-0.831c-0.4019-0.2691-0.715-0.6514-0.8998-1.0984L3.5214 8.018 2.5972 8.3999c0.3358 0.8126 0.9049 1.5074 1.6355 1.9966zM3.5214 8.018 4.4457 7.6362C4.2609 7.1891 4.2129 6.6973 4.3076 6.2229L3.327 6.0271 2.3464 5.8313c-0.1722 0.8621-0.0849 1.756 0.2508 2.5686zM3.327 6.0271 4.3076 6.2229c0.0948-0.4743 0.328-0.91 0.6703-1.2518L4.2712 4.2635 3.5646 3.556C2.9425 4.1773 2.5185 4.9691 2.3464 5.8313zM4.2712 4.2635 4.9779 4.9711c0.3422-0.3418 0.7782-0.5745 1.2527-0.6686L6.036 3.3216 5.8415 2.3407C4.979 2.5118 4.1867 2.9347 3.5646 3.556zM6.036 3.3216 6.2306 4.3025c0.4745-0.0941 0.9662-0.0455 1.413 0.1399l0.3831-0.9238 0.3831-0.9237C7.5977 2.2581 6.7039 2.1696 5.8415 2.3407zM8.0267 3.5186 7.6436 4.4424c0.4469 0.1853 0.8287 0.4989 1.0973 0.9012l0.8317-0.5553 0.8316-0.5553C9.916 3.5018 9.2219 2.9318 8.4098 2.5949zM9.5726 4.7883 8.7409 5.3436c0.2687 0.4023 0.412 0.8752 0.4119 1.3589l1 2e-4 1 3e-4c1e-4-0.8793-0.2603-1.7388-0.7486-2.47zM10.1528 6.7027l-1-13e-4C9.1519 7.3507 8.8934 7.973 8.434 8.4318l0.7067 0.7075 0.7066 0.7075c0.8344-0.8333 1.3039-1.9636 1.3055-3.1429zM9.1407 9.1394 8.434 8.4318C7.9747 8.8906 7.352 9.1482 6.7028 9.1482l-1e-4 1-1e-4 1c1.1792 0 2.3102-0.468 3.1445-1.3013zM6.7028 4.0027l-14e-4-1c-0.7307 11e-4-1.4446 0.2186-2.0516 0.6251l0.5564 0.8309 0.5564 0.8309C6.0412 5.103 6.3689 5.0032 6.7042 5.0027zM5.2062 4.4587 4.6498 3.6278c-0.6071 0.4065-1.08 0.9839-1.3592 1.6591l0.9242 0.382 0.9241 0.3821C5.267 5.7411 5.4841 5.4761 5.7627 5.2896zM4.2148 5.6689 3.2906 5.2869C3.0115 5.9621 2.9388 6.7048 3.0815 7.4214l0.9807-0.1955 0.9807-0.1954C4.9774 6.7017 5.0108 6.3608 5.1389 6.051zM4.0623 7.2259 3.0815 7.4214C3.2243 8.1379 3.5762 8.796 4.0929 9.3126L4.8 8.6055 5.5071 7.8984C5.27 7.6613 5.1085 7.3593 5.043 7.0305zM4.8 8.6055 4.0929 9.3126c0.5166 0.5167 1.1747 0.8686 1.8912 1.0114l0.1955-0.9808 0.1954-0.9807C6.0462 8.297 5.7442 8.1355 5.5071 7.8984zM6.1796 9.3432 5.9841 10.324c0.7166 0.1427 1.4593 0.07 2.1345-0.2091l-0.382-0.9242-0.3821-0.9241C7.0447 8.3947 6.7038 8.4281 6.375 8.3625zM7.7366 9.1907l0.382 0.9242c0.6752-0.2792 1.2525-0.7521 1.6591-1.3592L8.9468 8.1993 8.1159 7.6428C7.9293 7.9214 7.6644 8.1385 7.3545 8.2666zM8.9468 8.1993 9.7777 8.7557c0.4065-0.607 0.624-1.321 0.6251-2.0516l-1-14e-4-1-14e-4c-5e-4 0.3353-0.1003 0.663-0.2869 0.9415zM9.4028 6.7027l1 0c0-0.9813-0.3899-1.9224-1.0838-2.6163L8.6119 4.7936 7.9048 5.5007c0.3188 0.3188 0.498 0.7512 0.498 1.202zM8.6119 4.7936 9.3191 4.0864c-0.6939-0.6938-1.635-1.0837-2.6164-1.0837l-1e-4 1-1e-4 1c0.4508 0 0.8832 0.1791 1.202 0.498z"/>
<path stroke="#fff" fill="none" d="M10.6031 2.519c0.169 2e-4 0.3057 0.1377 0.3057 0.3067-2e-4 0.1688-0.1368 0.3054-0.3057 0.3056-0.169-1e-4-0.3064-0.1368-0.3066-0.3057 0-0.1692 0.1375-0.3067 0.3066-0.3067z"/>
</symbol>
<symbol id="location_icon_2" viewBox="0 0 12 12" stroke-width="0.7" stroke="#fff" stroke-linecap="round" stroke-linejoin="round" fill="none">
<path d="M6 1.125c-1.8633 0-3.375 1.4388-3.375 3.2109 0 2.0391 2.25 5.2704 3.0762 6.3865 0.0343 0.0471 0.0792 0.0855 0.1311 0.1119S5.9417 10.8745 6 10.8745s0.1157-0.0138 0.1677-0.0402 0.0968-0.0648 0.1311-0.1119C7.125 9.6068 9.375 6.3766 9.375 4.3359 9.375 2.5638 7.8633 1.125 6 1.125z"/>
<path d="M6 5.625c0.6213 0 1.125-0.5037 1.125-1.125S6.6213 3.375 6 3.375 4.875 3.8787 4.875 4.5 5.3787 5.625 6 5.625z"/>
</symbol>
<symbol id="location_icon" viewBox="0 0 21 33" stroke-width="2" stroke="currentColor" fill="none">
<circle cx="10.4999" cy="10.08" r="3.62"/>
<path d="M10.5 1c5.2467 0 9.5 4.2533 9.5 9.5 0 1.2276-0.5784 3.1513-1.5615 5.4678-0.9651 2.2738-2.2591 4.7886-3.5635 7.1416-1.3027 2.3498-2.6059 4.5226-3.585 6.1084-0.2958 0.4791-0.563 0.9036-0.79 1.2636-0.227-0.36-0.4942-0.7845-0.79-1.2636-0.9791-1.5858-2.2824-3.7586-3.585-6.1084-1.3044-2.353-2.5984-4.8678-3.5635-7.1416C1.5784 13.6513 1 11.7276 1 10.5 1 5.2533 5.2533 1 10.5 1z"/>
</symbol>
<symbol id="logo" viewBox="0 0 87 23" fill="#fff" fill-opacity="0.7">
<path fill-opacity="1" d="M3.9392 13.1363c-0.6633 0-1.2494-0.1545-1.7583-0.4634-0.5089-0.3181-0.9087-0.7497-1.1995-1.2949-0.2908-0.5453-0.4362-1.1723-0.4362-1.8811 0-0.7088 0.1409-1.3312 0.4226-1.8673 0.2908-0.5453 0.6951-0.9678 1.2131-1.2677s1.1132-0.4498 1.7856-0.4498c0.6452 0 1.204 0.1408 1.6766 0.4225 0.4816 0.2817 0.8496 0.677 1.1041 1.1859 0.2635 0.5089 0.3952 1.1086 0.3952 1.7992 0 0.0909-45e-4 0.1772-0.0136 0.259 0 0.0818-91e-4 0.1727-0.0273 0.2726l-5.7384 0 0-0.9132 5.0705 0-0.3544 0.5043c0-0.836-0.1863-1.4766-0.5589-1.9219C5.1569 7.0662 4.639 6.839 3.9665 6.839c-0.6906 0-1.2495 0.2408-1.6766 0.7224-0.418 0.4725-0.627 1.1132-0.627 1.9219 0 0.8269 0.209 1.4903 0.627 1.9901 0.4271 0.4907 0.9951 0.736 1.7039 0.736 0.4452 0 0.836-0.0954 1.1722-0.2862 0.3362-0.1999 0.5816-0.4816 0.736-0.8451H6.938c-0.2272 0.6361-0.6089 1.1404-1.145 1.513-0.527 0.3635-1.145 0.5452-1.8538 0.5452zM11.047 13.1363c-0.4544 0-0.8588-0.0909-1.2132-0.2726-0.3544-0.1908-0.6315-0.4544-0.8314-0.7906-0.1999-0.3453-0.2999-0.7406-0.2999-1.1858V6.0484h1.0904l0 4.5526c0 0.5271 0.1273 0.9224 0.3817 1.1859 0.2635 0.2635 0.6361 0.3953 1.1177 0.3953 0.4362 0 0.8224-0.1 1.1586-0.2999s0.5998-0.4771 0.7906-0.8315c0.1999-0.3635 0.2999-0.7769 0.2999-1.2404l0.1772 1.6493c-0.2272 0.518-0.5816 0.9269-1.0632 1.2268s-1.0178 0.4498-1.6084 0.4498zM13.6095 13v-1.6357h-0.0681V6.0484h1.0904V13zM19.5516 13.1227c-0.7724 0-1.3358-0.1727-1.6902-0.518-0.3453-0.3544-0.518-0.8633-0.518-1.5266V4.4264l1.0905-0.409v7.0471c0 0.3907 0.0999 0.6769 0.2999 0.8587 0.1999 0.1817 0.527 0.2726 0.9814 0.2726 0.1817 0 0.3362-91e-4 0.4634-0.0273 0.1363-0.0272 0.2454-0.059 0.3271-0.0954V13c-0.0908 0.0363-0.2226 0.0636-0.3952 0.0818-0.1636 0.0272-0.3499 0.0409-0.5589 0.0409zM15.9122 6.9753V6.0484h4.5935v0.9269zM24.6114 13.1363c-0.6633 0-1.2494-0.1545-1.7583-0.4634-0.5089-0.3181-0.9087-0.7497-1.1995-1.2949-0.2908-0.5453-0.4362-1.1723-0.4362-1.8811 0-0.7088 0.1409-1.3312 0.4226-1.8673 0.2907-0.5453 0.6951-0.9678 1.2131-1.2677 0.5179-0.2999 1.1131-0.4498 1.7856-0.4498 0.6452 0 1.204 0.1408 1.6765 0.4225 0.4817 0.2817 0.8497 0.677 1.1041 1.1859 0.2636 0.5089 0.3953 1.1086 0.3953 1.7992 0 0.0909-45e-4 0.1772-0.0136 0.259 0 0.0818-91e-4 0.1727-0.0273 0.2726l-5.7385 0V8.9381l5.0706 0-0.3544 0.5043c0-0.836-0.1863-1.4766-0.5588-1.9219-0.3635-0.4543-0.8815-0.6815-1.5539-0.6815-0.6906 0-1.2495 0.2408-1.6766 0.7224-0.418 0.4725-0.627 1.1132-0.627 1.9219 0 0.8269 0.209 1.4903 0.627 1.9901 0.4271 0.4907 0.9951 0.736 1.7038 0.736 0.4453 0 0.8361-0.0954 1.1723-0.2862 0.3362-0.1999 0.5815-0.4816 0.736-0.8451h1.036c-0.2272 0.6361-0.6089 1.1404-1.145 1.513-0.5271 0.3635-1.145 0.5452-1.8538 0.5452zM29.4565 13V6.0484h1.0223v1.772l0.0681 0V13zM30.5469 9.3743 30.3697 7.725c0.1636-0.5907 0.4544-1.0405 0.8724-1.3495s0.8996-0.4634 1.4448-0.4634c0.2272 0 0.3817 0.0182 0.4635 0.0545v1.0496c-0.0455-0.0182-0.1091-0.0273-0.1909-0.0273-0.0818-91e-4-0.1817-0.0136-0.2998-0.0136-0.6907 0-1.2177 0.209-1.5812 0.627-0.3544 0.4089-0.5316 0.9996-0.5316 1.772zM38.0028 13.1227c-0.6542 0-1.204-0.159-1.6493-0.4771-0.4452-0.318-0.7496-0.7679-0.9132-1.3494l0.2181-0.0273v4.5254h-1.0905V6.0484h1.0223v1.622l-0.1499-0.0409c0.1726-0.5362 0.4998-0.9542 0.9814-1.2541 0.4816-0.3089 1.0405-0.4634 1.6766-0.4634 0.6179 0 1.154 0.1499 1.6084 0.4498 0.4634 0.2999 0.8223 0.7179 1.0768 1.254 0.2544 0.5361 0.3816 1.1632 0.3816 1.881 0 0.727-0.1317 1.3631-0.3952 1.9083-0.2636 0.5452-0.6316 0.9678-1.1041 1.2677-0.4726 0.2998-1.0269 0.4498-1.663 0.4498zM37.8393 12.1685c0.6906 0 1.2313-0.2362 1.622-0.7088 0.3908-0.4816 0.5861-1.1358 0.5861-1.9628 0-0.8178-0.1953-1.4584-0.5861-1.9219-0.3907-0.4725-0.9314-0.7088-1.622-0.7088s-1.2359 0.2408-1.6357 0.7225c-0.3998 0.4725-0.5997 1.1222-0.5997 1.9491 0 0.8088 0.1999 1.4494 0.5997 1.9219 0.3998 0.4726 0.9451 0.7088 1.6357 0.7088zM47.1271 13c-0.0363-0.1545-0.0636-0.3317-0.0817-0.5316-91e-4-0.1999-0.0137-0.4543-0.0137-0.7633h-0.0681V8.3792c0-0.527-0.1227-0.9132-0.3681-1.1586-0.2362-0.2544-0.6224-0.3816-1.1586-0.3816-0.527 0-0.9496 0.109-1.2676 0.3271-0.309 0.209-0.4816 0.5089-0.518 0.8996l-1.0495 0c0.0454-0.6724 0.3271-1.1995 0.8451-1.5811 0.5179-0.3817 1.1949-0.5725 2.0309-0.5725 0.8633 0 1.5039 0.2044 1.922 0.6134 0.418 0.4089 0.627 1.0223 0.627 1.8401v3.3395c0 0.1999 0.0136 0.4089 0.0409 0.627 0.0272 0.209 0.0636 0.4316 0.109 0.6679zM44.7418 13.1363c-0.7179 0-1.2904-0.1726-1.7175-0.518-0.418-0.3544-0.627-0.836-0.627-1.4448s0.209-1.0814 0.627-1.4176c0.418-0.3362 1.0269-0.5725 1.8265-0.7088l2.4263-0.4089v0.8996l-2.2627 0.3544c-0.5089 0.0818-0.8951 0.2181-1.1586 0.4089-0.2635 0.1909-0.3953 0.468-0.3953 0.8315 0 0.3544 0.1181 0.6225 0.3544 0.8042 0.2454 0.1818 0.6043 0.2726 1.0768 0.2726 0.6089 0 1.1041-0.1363 1.4858-0.4089 0.3907-0.2817 0.5861-0.6452 0.5861-1.0904l0.1772 0.9677c-0.1454 0.4635-0.4317 0.8224-0.8588 1.0768-0.418 0.2545-0.9314 0.3817-1.5402 0.3817zM49.5816 13v-1.404h1.404V13zM53.1103 13V6.0484h1.0223v1.6357l0.0682 0V13zM57.7993 13V8.3929c0-0.5271-0.1182-0.9133-0.3544-1.1586-0.2363-0.2454-0.5771-0.3681-1.0223-0.3681-0.418 0-0.7951 0.1-1.1314 0.2999-0.3362 0.1999-0.6043 0.4771-0.8042 0.8315-0.1908 0.3544-0.2862 0.7678-0.2862 1.2404l-0.1772-1.6494c0.2363-0.518 0.5906-0.9269 1.0632-1.2268 0.4725-0.2999 0.9859-0.4498 1.5402-0.4498 0.6725 0 1.2177 0.1999 1.6357 0.5997 0.418 0.3908 0.627 0.9224 0.627 1.5948V13zM62.4882 13V8.3929c0-0.5271-0.1181-0.9133-0.3544-1.1586s-0.577-0.3681-1.0223-0.3681c-0.418 0-0.7951 0.1-1.1313 0.2999-0.3363 0.1999-0.6043 0.4771-0.8042 0.8315-0.1909 0.3544-0.2863 0.7678-0.2863 1.2404l-0.2726-1.6494c0.2363-0.518 0.5997-0.9269 1.0904-1.2268s1.0178-0.4498 1.5812-0.4498c0.6724 0 1.2222 0.1999 1.6493 0.5997 0.4271 0.3908 0.6406 0.9224 0.6406 1.5948V13zM67.9387 13.1363c-0.4543 0-0.8587-0.0909-1.2131-0.2726-0.3544-0.1908-0.6316-0.4544-0.8315-0.7906-0.1999-0.3453-0.2998-0.7406-0.2998-1.1858V6.0484h1.0904v4.5526c0 0.5271 0.1272 0.9224 0.3817 1.1859 0.2635 0.2635 0.6361 0.3953 1.1177 0.3953 0.4362 0 0.8224-0.1 1.1586-0.2999s0.5997-0.4771 0.7905-0.8315c0.2-0.3635 0.2999-0.7769 0.2999-1.2404l0.1772 1.6493c-0.2272 0.518-0.5816 0.9269-1.0632 1.2268s-1.0177 0.4498-1.6084 0.4498zM70.5013 13v-1.6357h-0.0682V6.0484h1.0905V13zM76.0341 13.1363c-0.8542 0-1.5357-0.1954-2.0446-0.5861-0.5088-0.3998-0.7996-0.9632-0.8723-1.6902h1.0495c0.0636 0.4453 0.259 0.786 0.5861 1.0223 0.3272 0.2363 0.7634 0.3544 1.3086 0.3544 0.4816 0 0.8587-0.0909 1.1313-0.2726 0.2726-0.1818 0.4089-0.4407 0.4089-0.777 0-0.2362-0.0772-0.4407-0.2317-0.6133-0.1545-0.1818-0.4634-0.3317-0.9269-0.4499l-1.1177-0.2862c-0.6361-0.1636-1.1131-0.4135-1.4312-0.7497-0.318-0.3453-0.4771-0.7542-0.4771-1.2267 0-0.5998 0.2227-1.0723 0.6679-1.4176 0.4453-0.3544 1.0496-0.5316 1.8129-0.5316 0.7542 0 1.3676 0.1817 1.8401 0.5452 0.4726 0.3635 0.7406 0.8678 0.8042 1.513l-1.0495 0c-0.0636-0.3726-0.2363-0.6588-0.518-0.8587s-0.6542-0.2999-1.1177-0.2999c-0.4452 0-0.7906 0.0863-1.0359 0.259-0.2454 0.1636-0.368 0.3998-0.368 0.7088 0 0.2363 0.0863 0.4407 0.259 0.6134 0.1817 0.1726 0.4816 0.318 0.8996 0.4361l1.0904 0.2999c0.6452 0.1727 1.1314 0.4362 1.4585 0.7906s0.4907 0.7815 0.4907 1.2813c0 0.6088-0.2317 1.0859-0.6952 1.4312-0.4634 0.3362-1.104 0.5043-1.9219 0.5043zM83.207 13.1363c-0.6633 0-1.2495-0.1545-1.7583-0.4634-0.5089-0.3181-0.9087-0.7497-1.1995-1.2949-0.2908-0.5453-0.4362-1.1723-0.4362-1.8811 0-0.7088 0.1408-1.3312 0.4225-1.8673 0.2908-0.5453 0.6952-0.9678 1.2132-1.2677 0.5179-0.2999 1.1131-0.4498 1.7856-0.4498 0.6452 0 1.204 0.1408 1.6765 0.4225 0.4816 0.2817 0.8497 0.677 1.1041 1.1859 0.2635 0.5089 0.3953 1.1086 0.3953 1.7992 0 0.0909-45e-4 0.1772-0.0136 0.259 0 0.0818-91e-4 0.1727-0.0273 0.2726l-5.7385 0V8.9381l5.0706 0-0.3544 0.5043c0-0.836-0.1863-1.4766-0.5588-1.9219-0.3635-0.4543-0.8815-0.6815-1.5539-0.6815-0.6906 0-1.2495 0.2408-1.6766 0.7224-0.418 0.4725-0.627 1.1132-0.627 1.9219 0 0.8269 0.209 1.4903 0.627 1.9901 0.4271 0.4907 0.995 0.736 1.7038 0.736 0.4453 0 0.836-0.0954 1.1723-0.2862 0.3362-0.1999 0.5815-0.4816 0.736-0.8451h1.0359c-0.2271 0.6361-0.6088 1.1404-1.1449 1.513-0.5271 0.3635-1.145 0.5452-1.8538 0.5452z"/>
<path d="M2.0475 20.9263c-0.3708 0-0.6666-0.0848-0.8875-0.2544-0.2209-0.1736-0.3471-0.4182-0.3787-0.7337h0.4556c0.0276 0.1933 0.1124 0.3412 0.2544 0.4437 0.142 0.1026 0.3314 0.1539 0.568 0.1539 0.2091 0 0.3728-0.0395 0.4911-0.1184 0.1184-0.0788 0.1775-0.1913 0.1775-0.3372 0-0.1026-0.0335-0.1913-0.1006-0.2663-0.0671-0.0789-0.2012-0.144-0.4024-0.1952l-0.4852-0.1243c-0.2761-0.071-0.4832-0.1795-0.6212-0.3254-0.1381-0.1499-0.2071-0.3274-0.2071-0.5325 0-0.2604 0.0966-0.4655 0.2899-0.6154 0.1933-0.1538 0.4556-0.2307 0.7869-0.2307 0.3274 0 0.5937 0.0789 0.7988 0.2366 0.2051 0.1578 0.3215 0.3767 0.3491 0.6568H2.6806c-0.0276-0.1617-0.1025-0.286-0.2248-0.3728-0.1223-0.0867-0.284-0.1301-0.4852-0.1301-0.1933 0-0.3432 0.0374-0.4497 0.1124-0.1065 0.071-0.1598 0.1736-0.1598 0.3077 0 0.1025 0.0374 0.1913 0.1124 0.2662 0.0789 0.075 0.209 0.1381 0.3905 0.1894l0.4733 0.1301c0.2801 0.075 0.4911 0.1894 0.6331 0.3432 0.142 0.1539 0.213 0.3393 0.213 0.5562 0 0.2643-0.1006 0.4714-0.3017 0.6213-0.2012 0.1459-0.4793 0.2189-0.8343 0.2189zM3.8668 20.8671l0-3.0176h0.4733v3.0176zM3.8313 17.1632l-1e-4-0.5562h0.5443v0.5562zM5.2882 20.8671l0-3.0176h0.4437l0 0.7101h0.0296l0 2.3075zM7.4478 20.8671l0-1.9762c0-0.2288-0.0572-0.4004-0.1716-0.5148-0.1143-0.1144-0.284-0.1716-0.5088-0.1716-0.1972 0-0.3728 0.0434-0.5266 0.1302-0.1499 0.0868-0.2682 0.2071-0.355 0.3609-0.0829 0.1539-0.1243 0.3334-0.1243 0.5385l-0.0769-0.716c0.1026-0.2248 0.2584-0.4023 0.4674-0.5325 0.213-0.1302 0.4537-0.1952 0.7219-0.1952 0.3156 0 0.568 0.0907 0.7573 0.2721 0.1932 0.1775 0.2899 0.4122 0.2899 0.7041l0 2.1005zM10.0313 22.1393c-0.3589 0-0.6587-0.0849-0.8993-0.2545-0.2367-0.1656-0.3807-0.3865-0.432-0.6627h0.4497c0.0434 0.1578 0.14 0.2821 0.2899 0.3728 0.1539 0.0947 0.361 0.142 0.6213 0.142 0.3077 0 0.5404-0.0848 0.6982-0.2544 0.1578-0.1657 0.2367-0.4103 0.2367-0.7337v-0.6449l0.0591 0.0118c-0.067 0.2288-0.2011 0.4122-0.4023 0.5503-0.2012 0.1341-0.4398 0.2011-0.7159 0.2011-0.2643 0-0.4971-0.0631-0.6982-0.1893-0.2012-0.1302-0.357-0.3097-0.4675-0.5384-0.1104-0.2288-0.1656-0.4951-0.1656-0.7988 0-0.3077 0.0572-0.5779 0.1715-0.8106 0.1143-0.2328 0.2741-0.4122 0.4792-0.5385 0.2091-0.1301 0.4517-0.1952 0.7278-0.1952 0.284 0 0.5207 0.069 0.71 0.2071 0.1933 0.138 0.3215 0.3353 0.3846 0.5917l-0.0532 59e-4v-0.7515h0.4437v2.8993c0 0.4299-0.1282 0.7692-0.3846 1.0177s-0.6074 0.3728-1.0532 0.3728zM10.055 20.4589c0.2958 0 0.5305-0.1026 0.7041-0.3077s0.2603-0.4832 0.2603-0.8343c0-0.3432-0.0867-0.6134-0.2603-0.8106-0.1736-0.2012-0.4083-0.3018-0.7041-0.3018-0.2998 0-0.5365 0.1006-0.71 0.3018-0.1697 0.2012-0.2545 0.4773-0.2545 0.8284 0 0.3431 0.0868 0.6173 0.2604 0.8224 0.1735 0.2012 0.4082 0.3018 0.7041 0.3018zM13.6551 20.9263c-0.288 0-0.5424-0.0671-0.7633-0.2012-0.2209-0.138-0.3945-0.3254-0.5207-0.5621s-0.1893-0.5088-0.1893-0.8165 0.0611-0.5779 0.1834-0.8106c0.1262-0.2367 0.3018-0.4201 0.5266-0.5503s0.4832-0.1952 0.7751-0.1952c0.2801 0 0.5227 0.0611 0.7278 0.1834 0.209 0.1223 0.3688 0.2939 0.4792 0.5148 0.1144 0.2208 0.1716 0.4812 0.1716 0.781 0 0.0394-19e-4 0.0769-59e-4 0.1124 0 0.0355-39e-4 0.0749-0.0118 0.1183h-2.491v-0.3964h2.2011l-0.1539 0.2189c0-0.3629-0.0808-0.641-0.2426-0.8342-0.1578-0.1973-0.3826-0.2959-0.6745-0.2959-0.2998 0-0.5424 0.1045-0.7278 0.3136-0.1814 0.2051-0.2721 0.4832-0.2721 0.8343 0 0.3589 0.0907 0.6469 0.2721 0.8638 0.1854 0.213 0.432 0.3195 0.7396 0.3195 0.1933 0 0.3629-0.0414 0.5089-0.1242 0.1459-0.0868 0.2524-0.2091 0.3195-0.3668h0.4497c-0.0986 0.2761-0.2643 0.495-0.497 0.6567-0.2288 0.1578-0.497 0.2367-0.8047 0.2367zM15.7582 20.8671v-3.0176h0.4438v0.7692h0.0296v2.2484zM16.2316 19.2932l-0.0769-0.7159c0.071-0.2564 0.1972-0.4516 0.3786-0.5858 0.1815-0.1341 0.3906-0.2011 0.6272-0.2011 0.0986 0 0.1657 79e-4 0.2012 0.0236v0.4556c-0.0197-79e-4-0.0473-0.0118-0.0828-0.0118-0.0355-4e-3-0.0789-59e-4-0.1302-59e-4-0.2998 0-0.5286 0.0907-0.6864 0.2722-0.1538 0.1775-0.2307 0.4339-0.2307 0.7691z"/>
<path d="M23.644 20.8671l-1.2484-3.0176h0.5088l1.0414 2.6981h-0.1894l1.0355-2.6981h0.4852l-1.2485 3.0176zM27.0388 20.9263c-0.2959 0-0.5562-0.069-0.7811-0.2071-0.2248-0.1381-0.4003-0.3254-0.5266-0.5621-0.1222-0.2406-0.1834-0.5108-0.1834-0.8106 0-0.3037 0.0631-0.572 0.1894-0.8047 0.1262-0.2327 0.2998-0.4161 0.5206-0.5503 0.2249-0.1341 0.4852-0.2011 0.7811-0.2011 0.2998 0 0.5601 0.067 0.781 0.2011 0.2248 0.1342 0.3984 0.3176 0.5207 0.5503 0.1262 0.2327 0.1893 0.501 0.1893 0.8047 0 0.2998-0.0631 0.57-0.1893 0.8106-0.1223 0.2367-0.2959 0.424-0.5207 0.5621-0.2209 0.1381-0.4812 0.2071-0.781 0.2071zM27.0388 20.5239c0.2051 0 0.3826-0.0493 0.5325-0.1479 0.1499-0.1025 0.2662-0.2426 0.3491-0.4201 0.0828-0.1775 0.1242-0.3826 0.1242-0.6153 0-0.3471-0.0927-0.6252-0.2781-0.8343-0.1814-0.2091-0.424-0.3136-0.7277-0.3136-0.2998 0-0.5424 0.1045-0.7278 0.3136s-0.2781 0.4872-0.2781 0.8343c0 0.2327 0.0414 0.4378 0.1243 0.6153 0.0828 0.1775 0.1992 0.3176 0.3491 0.4201 0.1538 0.0986 0.3313 0.1479 0.5325 0.1479zM30.435 20.9263c-0.2762 0-0.5227-0.0671-0.7397-0.2012-0.213-0.138-0.3826-0.3254-0.5088-0.5621-0.1223-0.2406-0.1834-0.5128-0.1834-0.8165s0.0611-0.572 0.1834-0.8047c0.1262-0.2327 0.2958-0.4161 0.5088-0.5503 0.217-0.1341 0.4616-0.2011 0.7337-0.2011 0.2249 0 0.426 0.0434 0.6036 0.1301 0.1814 0.0868 0.3293 0.2111 0.4437 0.3728 0.1184 0.1578 0.1933 0.3432 0.2249 0.5562h-0.4379c-0.0394-0.1933-0.1302-0.3511-0.2722-0.4734s-0.3254-0.1834-0.5502-0.1834c-0.1933 0-0.361 0.0473-0.503 0.142s-0.2524 0.2288-0.3313 0.4024c-0.0789 0.1735-0.1183 0.3767-0.1183 0.6094s0.0394 0.4378 0.1183 0.6153c0.0789 0.1776 0.1893 0.3156 0.3313 0.4142 0.146 0.0986 0.3156 0.1479 0.5089 0.1479 0.2169 0 0.3984-0.0591 0.5443-0.1775 0.146-0.1222 0.2387-0.28 0.2781-0.4733h0.4379c-0.0355 0.2091-0.1144 0.3945-0.2367 0.5562-0.1183 0.1578-0.2663 0.28-0.4438 0.3668s-0.3747 0.1302-0.5916 0.1302zM34.2351 20.8671c-0.0158-0.067-0.0277-0.144-0.0355-0.2307-4e-3-0.0868-6e-3-0.1973-6e-3-0.3314H34.164v-1.4437c0-0.2288-0.0532-0.3964-0.1597-0.5029-0.1026-0.1105-0.2702-0.1657-0.5029-0.1657-0.2288 0-0.4122 0.0473-0.5503 0.142-0.1341 0.0907-0.2091 0.2209-0.2248 0.3905h-0.4556c0.0197-0.2919 0.142-0.5207 0.3668-0.6863 0.2248-0.1657 0.5187-0.2485 0.8816-0.2485 0.3747 0 0.6528 0.0887 0.8343 0.2662 0.1814 0.1775 0.2722 0.4438 0.2722 0.7988v1.4496c0 0.0868 59e-4 0.1775 0.0177 0.2722 0.0118 0.0907 0.0276 0.1874 0.0473 0.2899zM33.1996 20.9263c-0.3116 0-0.5601-0.075-0.7455-0.2248-0.1815-0.1539-0.2722-0.3629-0.2722-0.6272s0.0907-0.4694 0.2722-0.6154c0.1814-0.1459 0.4457-0.2485 0.7928-0.3077l1.0532-0.1775v0.3905l-0.9822 0.1539c-0.2209 0.0355-0.3885 0.0947-0.5029 0.1775s-0.1716 0.2031-0.1716 0.3609c0 0.1539 0.0513 0.2702 0.1539 0.3491 0.1065 0.0789 0.2623 0.1183 0.4674 0.1183 0.2643 0 0.4793-0.0591 0.6449-0.1775 0.1696-0.1222 0.2544-0.28 0.2544-0.4733l0.077 0.4201c-0.0631 0.2012-0.1874 0.357-0.3728 0.4674-0.1814 0.1105-0.4043 0.1657-0.6686 0.1657zM35.538 20.8671V16.607h0.4733v4.2601zM39.3391 20.9263c-0.2761 0-0.5226-0.0671-0.7396-0.2012-0.213-0.138-0.3826-0.3254-0.5088-0.5621-0.1223-0.2406-0.1835-0.5128-0.1835-0.8165s0.0612-0.572 0.1835-0.8047c0.1262-0.2327 0.2958-0.4161 0.5088-0.5503 0.217-0.1341 0.4615-0.2011 0.7337-0.2011 0.2248 0 0.426 0.0434 0.6035 0.1301 0.1815 0.0868 0.3294 0.2111 0.4438 0.3728 0.1183 0.1578 0.1933 0.3432 0.2248 0.5562h-0.4378c-0.0395-0.1933-0.1302-0.3511-0.2722-0.4734s-0.3254-0.1834-0.5503-0.1834c-0.1932 0-0.3609 0.0473-0.5029 0.142s-0.2524 0.2288-0.3313 0.4024c-0.0789 0.1735-0.1184 0.3767-0.1184 0.6094s0.0395 0.4378 0.1184 0.6153c0.0789 0.1776 0.1893 0.3156 0.3313 0.4142 0.146 0.0986 0.3156 0.1479 0.5089 0.1479 0.2169 0 0.3984-0.0591 0.5443-0.1775 0.146-0.1222 0.2387-0.28 0.2781-0.4733h0.4378c-0.0355 0.2091-0.1143 0.3945-0.2366 0.5562-0.1184 0.1578-0.2663 0.28-0.4438 0.3668s-0.3747 0.1302-0.5917 0.1302zM42.5416 20.9263c-0.2958 0-0.5562-0.069-0.781-0.2071s-0.4004-0.3254-0.5266-0.5621c-0.1223-0.2406-0.1834-0.5108-0.1834-0.8106 0-0.3037 0.0631-0.572 0.1893-0.8047s0.2998-0.4161 0.5207-0.5503c0.2248-0.1341 0.4852-0.2011 0.781-0.2011 0.2998 0 0.5602 0.067 0.781 0.2011 0.2249 0.1342 0.3984 0.3176 0.5207 0.5503 0.1263 0.2327 0.1894 0.501 0.1894 0.8047 0 0.2998-0.0631 0.57-0.1894 0.8106-0.1223 0.2367-0.2958 0.424-0.5207 0.5621-0.2208 0.1381-0.4812 0.2071-0.781 0.2071zM42.5416 20.5239c0.2051 0 0.3826-0.0493 0.5325-0.1479 0.1499-0.1025 0.2663-0.2426 0.3491-0.4201 0.0829-0.1775 0.1243-0.3826 0.1243-0.6153 0-0.3471-0.0927-0.6252-0.2781-0.8343-0.1815-0.2091-0.424-0.3136-0.7278-0.3136-0.2998 0-0.5424 0.1045-0.7278 0.3136-0.1853 0.2091-0.278 0.4872-0.278 0.8343 0 0.2327 0.0414 0.4378 0.1242 0.6153s0.1992 0.3176 0.3491 0.4201c0.1538 0.0986 0.3313 0.1479 0.5325 0.1479zM46.5946 20.8671c-0.0158-0.067-0.0276-0.144-0.0355-0.2307-4e-3-0.0868-59e-4-0.1973-59e-4-0.3314h-0.0296v-1.4437c0-0.2288-0.0533-0.3964-0.1598-0.5029-0.1025-0.1105-0.2702-0.1657-0.5029-0.1657-0.2288 0-0.4122 0.0473-0.5503 0.142-0.1341 0.0907-0.209 0.2209-0.2248 0.3905h-0.4556c0.0197-0.2919 0.142-0.5207 0.3668-0.6863 0.2249-0.1657 0.5187-0.2485 0.8816-0.2485 0.3748 0 0.6529 0.0887 0.8343 0.2662 0.1815 0.1775 0.2722 0.4438 0.2722 0.7988v1.4496c0 0.0868 59e-4 0.1775 0.0177 0.2722 0.0119 0.0907 0.0276 0.1874 0.0474 0.2899zM45.5591 20.9263c-0.3116 0-0.5601-0.075-0.7455-0.2248-0.1814-0.1539-0.2722-0.3629-0.2722-0.6272s0.0908-0.4694 0.2722-0.6154c0.1815-0.1459 0.4457-0.2485 0.7929-0.3077l1.0532-0.1775v0.3905l-0.9822 0.1539c-0.2209 0.0355-0.3886 0.0947-0.503 0.1775s-0.1716 0.2031-0.1716 0.3609c0 0.1539 0.0513 0.2702 0.1539 0.3491 0.1065 0.0789 0.2623 0.1183 0.4674 0.1183 0.2643 0 0.4793-0.0591 0.6449-0.1775 0.1697-0.1222 0.2545-0.28 0.2545-0.4733l0.0769 0.4201c-0.0631 0.2012-0.1874 0.357-0.3728 0.4674-0.1814 0.1105-0.4043 0.1657-0.6686 0.1657zM49.0927 20.9263c-0.2761 0-0.5227-0.0671-0.7396-0.2012-0.213-0.138-0.3826-0.3254-0.5089-0.5621-0.1222-0.2406-0.1834-0.5128-0.1834-0.8165s0.0612-0.572 0.1834-0.8047c0.1263-0.2327 0.2959-0.4161 0.5089-0.5503 0.2169-0.1341 0.4615-0.2011 0.7337-0.2011 0.2248 0 0.426 0.0434 0.6035 0.1301 0.1814 0.0868 0.3294 0.2111 0.4438 0.3728 0.1183 0.1578 0.1932 0.3432 0.2248 0.5562H49.921c-0.0394-0.1933-0.1301-0.3511-0.2721-0.4734s-0.3255-0.1834-0.5503-0.1834c-0.1933 0-0.3609 0.0473-0.5029 0.142s-0.2525 0.2288-0.3314 0.4024c-0.0789 0.1735-0.1183 0.3767-0.1183 0.6094s0.0394 0.4378 0.1183 0.6153c0.0789 0.1776 0.1894 0.3156 0.3314 0.4142 0.1459 0.0986 0.3155 0.1479 0.5088 0.1479 0.217 0 0.3984-0.0591 0.5444-0.1775 0.1459-0.1222 0.2386-0.28 0.2781-0.4733h0.4378c-0.0355 0.2091-0.1144 0.3945-0.2367 0.5562-0.1183 0.1578-0.2662 0.28-0.4437 0.3668s-0.3748 0.1302-0.5917 0.1302zM51.0524 20.8671V16.607h0.4733v4.2601zM53.212 20.8671v-1.9762c0-0.2288-0.0572-0.4004-0.1716-0.5148s-0.284-0.1716-0.5088-0.1716c-0.1972 0-0.3728 0.0434-0.5266 0.1302-0.1499 0.0868-0.2682 0.2071-0.355 0.3609-0.0829 0.1539-0.1243 0.3334-0.1243 0.5385l-0.0769-0.716c0.1026-0.2248 0.2584-0.4023 0.4674-0.5325 0.213-0.1302 0.4537-0.1952 0.7219-0.1952 0.3156 0 0.568 0.0907 0.7573 0.2721 0.1933 0.1775 0.29 0.4122 0.29 0.7041v2.1005z"/>
<circle cx="20.0247" cy="18.9431" r="0.452884"/>
</symbol>

<symbol id="close-btn" viewBox="0 0 14 14" stroke-width="1.83333" stroke="#fff" stroke-linecap="round" fill="none">
<path d="M0.9167 0.9167 11.9358 11.9358"/>
<path d="M1.1245 12.1442 12.1436 1.1252"/>
</symbol>

<symbol id="mark_icon" viewBox="0 0 12 11" fill="none">
<path stroke="currentColor" stroke-linecap="round" d="M0.5001 5 2.9642 9.5l8.5359-9"/>
</symbol>

<symbol id="online_icon" viewBox="0 0 29 29" stroke-width="2" stroke="currentColor" fill="none">
<circle cx="14.5" cy="14.5" r="13.5"/>
<path d="M22.5 3c0 0-1 4-8 4-6-0.5-8-4.5-8-4.5"/>
<path d="M24.5 24.5c0 0-4-3.5-10-3.5C8 21 5 25 5 25"/>
<path d="M14.5 27.5c0 0 7-4.9919 7-13 0-8.0081-7-13.5-7-13.5"/>
<path d="M16 28c0 0-8-5.3882-8-13.2453C8 6.8977 15.0588 2 15.0588 2"/>
<path stroke-linecap="round" d="M1 14h27"/>
</symbol>

<symbol id="phone_icon" viewBox="0 0 12 12" fill="none">
<path fill="#fff" d="M9.75 11c0.1989 0 0.3897-0.079 0.5303-0.2197C10.421 10.6397 10.5 10.4489 10.5 10.25V8.5c0-0.1989-0.079-0.3897-0.2197-0.5303C10.1397 7.829 9.9489 7.75 9.75 7.75c-0.585 0-1.16-0.09-1.71-0.275-0.1315-0.0415-0.2719-0.0462-0.4058-0.0136C7.5002 7.494 7.3777 7.5627 7.28 7.66L6.56 8.38C5.3161 7.7012 4.2938 6.6789 3.615 5.435L4.33 4.72c0.205-0.195 0.28-0.485 0.19-0.765C4.34 3.41 4.25 2.835 4.25 2.25c0-0.1989-0.079-0.3897-0.2197-0.5303S3.6989 1.5 3.5 1.5H1.75c-0.1989 0-0.3897 0.079-0.5303 0.2197S1 2.0511 1 2.25C1 7.075 4.925 11 9.75 11zM1.75 2H3.5c0.0663 0 0.1299 0.0263 0.1768 0.0732C3.7237 2.1201 3.75 2.1837 3.75 2.25c0 0.64 0.1 1.265 0.295 1.86 0.025 0.07 0.02 0.17-0.06 0.25L3 5.34C3.825 6.955 5.035 8.165 6.655 9L7.63 8.015c0.07-0.07 0.165-0.09 0.255-0.065 0.6 0.2 1.225 0.3 1.865 0.3 0.0663 0 0.1299 0.0263 0.1768 0.0732C9.9737 8.3701 10 8.4337 10 8.5v1.75c0 0.0663-0.0263 0.1299-0.0732 0.1768C9.8799 10.4737 9.8163 10.5 9.75 10.5 5.2 10.5 1.5 6.8 1.5 2.25c0-0.0663 0.0263-0.1299 0.0732-0.1768C1.6201 2.0263 1.6837 2 1.75 2z"/>
</symbol>

<symbol id="spotify_icon" viewBox="0 0 15 15" stroke-width="0.7" stroke="#fff" fill="none">
<path d="M7.0167 13.6833c3.6819 0 6.6666-2.9848 6.6666-6.6667 0-3.6819-2.9847-6.6666-6.6666-6.6666C3.3348 0.35 0.35 3.3347 0.35 7.0166c0 3.6819 2.9848 6.6667 6.6667 6.6667z"/>
<path stroke-linecap="round" d="M4.0167 7.0626C4.7501 6.816 5.5341 6.6833 6.3501 6.6833c1.3493 0 2.6133 0.3647 3.6993 1M11.0167 5.6833C9.7834 4.842 8.2914 4.35 6.6834 4.35c-1.0647 0-2.0787 0.216-3 0.6053M9.1027 9.6833C7.7663 8.9965 6.2216 8.8336 4.7714 9.2266"/>
</symbol>

<symbol id="telegram_icon" viewBox="0 0 16 14" fill="none">
<path stroke="#fff" stroke-linecap="round" stroke-linejoin="round" d="M7.5725 9.289l2.2964 2.6109c0.85 0.9668 1.2757 1.4506 1.7213 1.3323 0.4448-0.1175 0.5978-0.7536 0.9031-2.0265l1.6929-7.0607c0.4711-1.9606 0.7062-2.9403 0.1835-3.424-0.5228-0.4838-1.4287-0.124-3.2406 0.595L2.724 4.6543C1.2747 5.2302 0.5501 5.5178 0.5041 6.0122c-55e-4 0.0504-55e-4 0.1012 0 0.1516 0.0446 0.4951 0.7678 0.7848 2.2156 1.3649 0.6552 0.2627 0.9832 0.3945 1.2184 0.6459C3.9645 8.2031 3.99 8.2324 4.0146 8.2626 4.2313 8.5318 4.3234 8.8859 4.5083 9.5914l0.3464 1.3225c0.1792 0.6871 0.2691 1.0313 0.505 1.0781 0.2359 0.0467 0.4406-0.238 0.8507-0.8083zM7.5725 9.289 7.348 9.0552C7.0916 8.7875 6.9634 8.6543 6.9634 8.4885S7.0909 8.1889 7.348 7.9219L9.8789 5.284"/>
</symbol>
</svg>